<?xml version="1.0" standalone="no"?>
<!DOCTYPE svg PUBLIC "-//W3C//DTD SVG 20010904//EN"
 "http://www.w3.org/TR/2001/REC-SVG-20010904/DTD/svg10.dtd">
<svg version="1.0" xmlns="http://www.w3.org/2000/svg"
 width="543.000000pt" height="543.000000pt" viewBox="0 0 543.000000 543.000000"
 preserveAspectRatio="xMidYMid meet">
<metadata>
Created by potrace 1.11, written by Peter Selinger 2001-2013
</metadata>
<g transform="translate(0.000000,543.000000) scale(0.100000,-0.100000)"
fill="#000000" stroke="none">
<path d="M2499 4676 c-2 -2 -31 -7 -64 -11 -33 -3 -69 -7 -80 -10 -11 -2 -41
-7 -68 -11 -26 -3 -49 -10 -52 -14 -2 -4 -16 -6 -30 -5 -14 2 -25 -2 -25 -8 0
-7 -5 -5 -10 3 -5 8 -10 10 -10 4 0 -7 -7 -15 -16 -18 -8 -3 -12 -2 -9 4 3 5
-7 3 -21 -5 -15 -8 -31 -12 -36 -9 -4 3 -8 1 -8 -4 0 -5 -6 -9 -12 -10 -25 -2
-71 -17 -100 -33 -10 -5 -25 -9 -33 -9 -8 0 -15 -5 -15 -10 0 -6 -3 -9 -7 -8
-17 3 -63 -15 -63 -25 0 -6 -3 -8 -6 -4 -6 6 -104 -42 -129 -63 -7 -5 -14 -8
-16 -5 -3 2 -18 -7 -33 -20 -16 -14 -32 -22 -36 -20 -4 3 -10 -2 -14 -10 -3
-8 -12 -15 -19 -15 -8 0 -22 -9 -32 -20 -10 -11 -20 -18 -22 -16 -3 2 -13 -3
-23 -12 -9 -10 -33 -28 -51 -42 -19 -14 -44 -35 -57 -47 -13 -13 -27 -23 -32
-23 -6 0 -10 -7 -10 -16 0 -8 -4 -13 -9 -10 -5 3 -17 -5 -27 -19 -10 -13 -21
-22 -26 -19 -4 3 -8 1 -8 -4 0 -14 -36 -52 -44 -45 -3 3 -6 -1 -6 -10 0 -9 -5
-17 -10 -17 -6 0 -15 -11 -22 -25 -6 -13 -15 -22 -19 -19 -5 3 -9 0 -9 -5 0
-6 -8 -19 -18 -29 -10 -10 -30 -34 -46 -54 l-27 -37 30 -16 c17 -8 31 -20 31
-25 0 -6 6 -10 13 -10 7 0 28 -13 47 -30 19 -16 39 -29 43 -30 4 0 17 -9 29
-20 11 -10 36 -26 54 -35 19 -9 34 -19 34 -23 0 -4 16 -16 35 -26 19 -11 35
-23 35 -28 0 -4 6 -8 13 -8 7 0 23 -9 35 -20 12 -11 25 -20 31 -20 5 0 11 -3
13 -7 5 -12 66 -53 78 -53 5 0 10 -4 10 -8 0 -4 21 -21 47 -38 25 -16 51 -33
58 -39 29 -26 51 -33 72 -21 12 6 23 16 25 21 1 6 23 28 47 50 24 22 53 48 63
58 10 9 22 17 26 17 5 0 17 9 27 20 10 11 24 20 32 20 7 0 13 5 13 10 0 6 5
10 11 10 6 0 23 9 39 20 15 11 30 17 34 13 3 -3 6 -1 6 5 0 7 9 12 19 12 11 0
23 5 26 10 4 6 11 8 16 5 5 -4 9 -2 9 2 0 7 63 31 103 39 4 1 8 2 10 4 1 1 11
4 22 6 11 3 25 6 30 8 6 1 33 7 60 11 57 10 64 12 68 15 8 7 187 4 187 -4 0
-4 6 -3 13 3 8 6 17 8 21 4 9 -9 35 -15 64 -14 12 0 22 -3 22 -8 0 -4 14 -7
30 -6 17 1 30 -3 30 -8 0 -6 3 -8 6 -5 3 4 21 0 40 -8 19 -8 35 -14 36 -13 3
0 32 -9 58 -19 8 -3 17 -6 20 -6 16 -4 138 -70 153 -84 9 -8 17 -11 17 -6 0 5
4 5 8 -1 4 -5 32 -30 62 -55 30 -24 59 -50 63 -57 4 -7 15 -13 22 -13 8 0 14
-3 13 -7 -2 -5 12 -24 31 -43 73 -76 164 -223 205 -332 9 -26 17 -50 17 -53 0
-2 7 -24 15 -47 8 -24 15 -57 16 -75 1 -18 4 -33 7 -33 8 0 13 -64 13 -170 0
-73 -7 -175 -12 -175 -1 0 -3 -11 -5 -25 -7 -56 -40 -168 -62 -210 -7 -14 -13
-31 -13 -37 0 -7 -4 -13 -8 -13 -5 0 -9 -6 -9 -12 0 -7 -4 -21 -8 -30 -5 -12
2 -22 22 -35 15 -10 33 -22 40 -28 28 -23 40 -31 75 -49 20 -11 35 -24 32 -28
-3 -4 2 -8 10 -8 8 0 21 -6 28 -13 17 -16 62 -44 68 -43 3 1 19 -11 35 -27 17
-15 38 -30 48 -33 9 -3 17 -10 17 -15 0 -5 6 -9 13 -9 6 -1 28 -14 47 -30 19
-17 40 -30 46 -30 7 0 15 -7 18 -16 4 -9 9 -14 12 -11 6 6 17 -2 55 -36 10 -9
21 -17 23 -17 9 0 101 -64 108 -74 4 -6 8 -7 8 -2 0 6 6 2 13 -7 6 -9 25 -18
41 -21 16 -3 26 -2 22 1 -5 5 21 60 34 73 11 10 80 154 80 167 0 7 5 13 11 13
5 0 8 4 4 9 -3 5 -1 12 4 15 5 3 12 17 15 30 3 14 11 38 18 53 14 35 12 29 28
86 7 26 17 47 22 47 5 0 6 4 3 10 -3 5 0 29 6 52 7 24 13 51 12 61 0 9 3 17 7
17 5 0 7 8 6 18 -2 9 1 30 5 46 14 48 23 164 24 293 0 68 4 123 9 123 5 0 4 6
-1 13 -5 6 -10 43 -12 81 -1 38 -4 73 -7 78 -3 5 -8 30 -10 56 -6 65 -8 75
-17 90 -5 6 -6 12 -3 12 2 0 0 15 -5 33 -6 17 -12 48 -15 67 -3 19 -8 37 -12
40 -9 6 -15 28 -16 55 0 11 -6 26 -13 33 -7 8 -11 17 -8 22 3 5 1 11 -5 15 -5
3 -10 15 -10 26 0 10 -4 19 -8 19 -4 0 -9 10 -9 22 -1 13 -7 24 -13 26 -5 2
-10 10 -10 18 0 15 -77 175 -89 184 -3 3 -13 19 -21 35 -8 17 -21 36 -28 43
-7 8 -9 19 -5 25 3 7 3 9 -2 5 -4 -4 -22 14 -38 40 -17 26 -34 49 -37 52 -3 3
-21 25 -40 50 -18 25 -49 60 -67 77 -18 18 -33 35 -33 37 0 6 -111 116 -117
116 -2 0 -22 16 -43 36 -22 21 -56 48 -75 61 -19 13 -35 28 -35 34 0 6 -4 8
-8 5 -5 -3 -22 7 -39 22 -17 15 -37 28 -44 30 -8 2 -21 9 -29 17 -8 7 -35 23
-60 35 -25 13 -48 27 -51 32 -3 5 -13 10 -21 12 -9 1 -23 8 -32 15 -9 7 -16
11 -16 8 0 -3 -27 8 -60 24 -33 16 -67 29 -75 29 -8 0 -15 5 -15 12 0 6 -3 9
-6 5 -4 -3 -19 0 -35 8 -15 8 -39 15 -54 15 -14 0 -25 5 -25 10 0 6 -13 10
-30 10 -16 0 -30 4 -30 8 0 7 -27 13 -72 15 -10 1 -18 5 -18 9 0 4 -3 7 -7 6
-7 -2 -80 9 -123 18 -8 2 -36 6 -62 8 -26 2 -52 7 -57 10 -5 4 -12 2 -16 -4
-4 -6 -12 -7 -18 -3 -19 12 -277 11 -277 -1 0 -6 -4 -5 -8 2 -5 7 -10 10 -13
8z"/>
<path d="M950 3679 c0 -6 -8 -23 -18 -37 -10 -15 -25 -43 -32 -62 -7 -19 -23
-48 -34 -64 -11 -16 -14 -26 -6 -21 15 9 7 -9 -18 -37 -8 -10 -12 -18 -9 -18
3 0 -5 -29 -18 -64 -13 -35 -21 -66 -18 -70 4 -3 1 -6 -5 -6 -7 0 -11 -3 -10
-7 1 -5 -2 -20 -6 -34 -4 -14 -9 -34 -11 -45 -2 -10 -4 -19 -5 -19 -1 0 -3
-10 -6 -22 -2 -13 -6 -33 -8 -45 -3 -13 -5 -23 -6 -23 -1 0 -4 -16 -6 -35 -4
-36 -11 -75 -14 -75 -6 0 -10 -125 -9 -285 1 -219 2 -250 10 -250 5 0 8 -24
13 -97 0 -13 3 -23 6 -23 3 0 7 -10 8 -22 4 -40 8 -57 15 -64 4 -4 7 -17 7
-29 0 -12 3 -25 7 -29 6 -6 9 -20 15 -63 1 -7 5 -13 10 -13 4 0 7 -3 7 -7 -1
-5 0 -10 1 -13 1 -3 3 -12 5 -20 7 -33 40 -115 48 -118 4 -2 7 -10 7 -17 0
-19 101 -215 112 -215 4 0 8 -7 8 -15 0 -9 9 -25 20 -37 10 -12 17 -24 15 -28
-3 -5 2 -10 10 -14 8 -3 15 -12 15 -21 0 -8 5 -15 12 -15 6 0 9 -3 5 -6 -3 -3
5 -16 19 -29 13 -12 24 -25 24 -29 0 -6 12 -21 56 -70 13 -15 24 -31 24 -36 0
-6 7 -10 16 -10 8 0 13 -3 11 -7 -5 -10 99 -113 107 -106 3 4 6 0 6 -8 0 -8
16 -25 35 -38 19 -13 32 -27 29 -32 -3 -5 -2 -9 3 -8 21 4 33 -2 33 -17 0 -8
4 -12 10 -9 5 3 10 1 10 -4 0 -6 7 -11 16 -11 8 0 12 -4 9 -10 -3 -5 0 -10 8
-10 7 0 23 -9 34 -19 12 -11 24 -17 27 -14 3 4 6 2 6 -4 0 -5 16 -18 35 -29
19 -10 35 -22 35 -26 0 -5 9 -8 19 -8 10 0 22 -7 25 -16 4 -9 9 -14 12 -11 4
3 13 -1 21 -9 8 -8 19 -12 24 -9 5 4 9 1 9 -4 0 -6 7 -11 15 -11 8 0 15 -4 15
-10 0 -5 7 -10 15 -10 8 0 42 -14 75 -31 34 -17 67 -32 73 -33 7 -1 22 -8 35
-14 12 -7 22 -9 22 -5 0 4 5 2 12 -5 7 -7 22 -12 34 -12 13 0 26 -4 29 -10 3
-5 17 -10 31 -10 13 0 24 -3 24 -8 0 -4 14 -8 31 -8 17 -1 34 -6 38 -10 3 -5
15 -10 26 -10 20 -2 70 -11 70 -14 0 -1 18 -3 40 -6 22 -3 56 -7 75 -10 72
-10 138 -13 260 -13 120 0 245 5 245 9 0 1 11 3 25 5 65 7 189 31 223 44 15 6
27 8 27 5 0 -4 7 -1 15 6 8 7 15 9 15 5 0 -4 7 -2 15 5 8 7 15 9 15 5 0 -4 6
-2 13 4 8 6 16 9 19 6 3 -3 30 6 62 20 31 14 63 25 71 25 7 0 20 7 29 15 8 9
17 14 18 13 6 -6 128 54 128 63 0 5 6 9 13 7 6 -2 26 7 43 19 17 12 34 20 38
16 3 -3 6 -1 6 5 0 6 15 18 34 27 18 9 43 25 54 35 12 11 25 20 29 20 4 0 25
16 46 35 20 18 37 31 37 27 0 -3 18 13 40 36 22 22 40 39 40 36 0 -3 10 4 22
16 12 11 26 20 32 20 5 0 7 3 4 6 -8 7 36 54 51 54 6 0 11 5 11 11 0 7 10 21
23 33 12 11 31 31 41 44 20 23 20 23 -15 52 -19 16 -40 29 -46 30 -7 0 -13 5
-13 10 0 6 -5 10 -10 10 -6 0 -20 9 -32 20 -12 11 -34 26 -50 32 -15 7 -28 15
-28 18 0 4 -37 31 -82 61 -46 29 -88 61 -95 69 -7 8 -13 11 -13 7 0 -4 -10 1
-22 13 -12 11 -28 20 -35 20 -8 0 -11 4 -8 10 3 5 1 10 -5 10 -13 0 -103 60
-108 73 -2 4 -9 7 -15 7 -7 0 -23 9 -37 21 -14 11 -77 56 -140 99 -63 44 -124
87 -135 96 -11 9 -30 21 -42 27 -13 5 -23 14 -23 19 0 4 -7 8 -15 8 -8 0 -15
5 -15 12 0 6 -3 9 -6 5 -5 -5 -27 10 -59 41 -8 6 -17 12 -21 12 -4 0 -23 12
-43 27 -20 16 -39 27 -43 25 -5 -1 -8 2 -8 8 0 5 -13 16 -29 25 -16 8 -35 20
-43 27 -7 7 -53 40 -103 74 -49 34 -125 85 -168 115 -43 30 -85 59 -94 64 -21
13 -32 21 -62 45 -13 11 -27 20 -31 20 -4 0 -20 11 -35 24 -15 13 -40 30 -54
38 -14 7 -28 15 -31 18 -3 4 -27 22 -55 41 -27 18 -51 37 -53 42 -2 4 -10 7
-18 7 -8 0 -14 4 -14 8 0 5 -17 18 -37 29 -21 12 -49 32 -63 45 -13 13 -27 23
-30 22 -11 -2 -80 49 -80 59 0 6 -3 8 -6 4 -4 -3 -30 12 -60 34 -29 21 -57 39
-63 39 -5 0 -11 4 -13 8 -1 5 -39 33 -83 62 -44 29 -81 57 -83 62 -2 4 -10 8
-18 8 -8 0 -14 5 -14 10 0 6 -6 10 -13 10 -8 0 -22 9 -32 20 -10 11 -22 20
-27 20 -5 0 -18 9 -30 20 -12 11 -28 20 -35 20 -8 0 -12 4 -9 8 2 4 -8 13 -24
20 -15 7 -40 24 -54 37 -15 14 -28 23 -31 22 -2 -1 -13 5 -23 13 -39 32 -82
60 -91 60 -5 0 -11 4 -13 8 -1 5 -32 28 -68 52 -36 24 -66 47 -68 52 -2 4 -9
8 -16 8 -7 0 -21 9 -31 20 -10 11 -22 20 -28 20 -5 0 -22 11 -39 25 -32 27
-48 32 -48 14z"/>
</g>
</svg>
